<svg xmlns="http://www.w3.org/2000/svg" xmlns:xlink="http://www.w3.org/1999/xlink" width="500" zoomAndPan="magnify" viewBox="0 0 375 374.999991" height="500" preserveAspectRatio="xMidYMid meet" version="1.0"><defs><g/><clipPath id="2535528795"><path d="M 131 121.933594 L 233 121.933594 L 233 189 L 131 189 Z M 131 121.933594 " clip-rule="nonzero"/></clipPath><clipPath id="0c606b2b4e"><path d="M 109.863281 165 L 254.550781 165 L 254.550781 213.433594 L 109.863281 213.433594 Z M 109.863281 165 " clip-rule="nonzero"/></clipPath></defs><rect x="-37.5" width="450" fill="#ffffff" y="-37.499999" height="449.999989" fill-opacity="1"/><rect x="-37.5" width="450" fill="#ffffff" y="-37.499999" height="449.999989" fill-opacity="1"/><g clip-path="url(#2535528795)"><path fill="#29375c" d="M 207.414062 127.957031 C 218.050781 127.957031 226.613281 136.492188 226.613281 147.101562 C 226.613281 157.707031 218.054688 166.242188 207.414062 166.242188 C 196.773438 166.242188 188.214844 157.707031 188.214844 147.101562 C 188.214844 136.492188 196.773438 127.957031 207.414062 127.957031 Z M 156.9375 127.957031 C 167.574219 127.957031 176.136719 136.492188 176.136719 147.101562 C 176.136719 157.707031 167.574219 166.242188 156.9375 166.242188 C 146.296875 166.242188 137.734375 157.707031 137.734375 147.101562 C 137.734375 136.492188 146.296875 127.957031 156.9375 127.957031 Z M 156.9375 121.933594 C 143.03125 121.933594 131.695312 133.238281 131.695312 147.101562 C 131.695312 160.964844 143.03125 172.265625 156.9375 172.265625 C 159.652344 172.265625 162.269531 171.832031 164.730469 171.035156 L 182.175781 188.730469 L 199.621094 171.035156 C 202.074219 171.832031 204.695312 172.265625 207.410156 172.265625 C 221.316406 172.265625 232.652344 160.964844 232.652344 147.101562 C 232.652344 133.238281 221.316406 121.933594 207.414062 121.933594 C 193.59375 121.933594 182.316406 133.09375 182.175781 146.839844 C 182.03125 133.09375 170.753906 121.933594 156.9375 121.933594 Z M 156.9375 121.933594 " fill-opacity="1" fill-rule="nonzero"/></g><path fill="#29375c" d="M 158.441406 133.613281 C 158.992188 134.929688 159.273438 136.339844 159.273438 137.769531 C 159.273438 143.730469 154.351562 148.640625 148.371094 148.640625 C 146.167969 148.640625 144.019531 147.976562 142.203125 146.734375 C 142.1875 147.011719 142.175781 147.289062 142.171875 147.566406 C 142.171875 155.304688 148.558594 161.671875 156.320312 161.671875 C 164.082031 161.671875 170.472656 155.304688 170.472656 147.566406 C 170.476562 140.613281 165.328125 134.652344 158.441406 133.613281 Z M 158.441406 133.613281 " fill-opacity="1" fill-rule="nonzero"/><path fill="#29375c" d="M 210.144531 133.613281 C 210.691406 134.929688 210.972656 136.339844 210.976562 137.769531 C 210.976562 143.730469 206.054688 148.640625 200.074219 148.640625 C 197.871094 148.640625 195.722656 147.976562 193.90625 146.734375 C 193.886719 147.011719 193.878906 147.289062 193.875 147.566406 C 193.875 155.304688 200.265625 161.671875 208.027344 161.671875 C 215.789062 161.671875 222.175781 155.304688 222.175781 147.566406 C 222.175781 140.613281 217.03125 134.652344 210.144531 133.613281 Z M 210.144531 133.613281 " fill-opacity="1" fill-rule="nonzero"/><g clip-path="url(#0c606b2b4e)"><path fill="#f79320" d="M 128.175781 165.554688 L 124.929688 170.863281 C 140.332031 177.101562 150.5625 183.1875 150.5625 183.1875 C 140.476562 178.941406 131.335938 175.761719 123.40625 173.355469 L 120.761719 177.671875 C 140.382812 183.703125 154.1875 190.964844 154.1875 190.964844 C 140.414062 186.007812 128.40625 182.84375 118.847656 180.804688 L 116.714844 184.289062 C 145.285156 189.683594 168.050781 201.085938 168.050781 201.085938 C 142.308594 192.417969 122.703125 189.742188 113.882812 188.917969 L 109.800781 195.582031 C 109.800781 195.582031 143.949219 196.175781 172.402344 206.730469 C 174.136719 213.429688 182.175781 213.320312 182.175781 213.320312 C 182.175781 213.320312 190.214844 213.429688 191.949219 206.730469 C 220.398438 196.175781 254.550781 195.582031 254.550781 195.582031 L 250.46875 188.914062 C 241.648438 189.738281 222.042969 192.417969 196.300781 201.082031 C 196.300781 201.082031 219.066406 189.675781 247.636719 184.285156 L 245.503906 180.800781 C 235.949219 182.839844 223.941406 186.003906 210.164062 190.960938 C 210.164062 190.960938 223.96875 183.699219 243.589844 177.667969 L 240.941406 173.355469 C 233.011719 175.761719 223.871094 178.941406 213.785156 183.1875 C 213.785156 183.1875 224.011719 177.101562 239.417969 170.863281 L 236.171875 165.554688 C 236.171875 165.554688 203.617188 175.28125 182.175781 205.109375 C 160.730469 175.28125 128.175781 165.554688 128.175781 165.554688 Z M 128.175781 165.554688 " fill-opacity="1" fill-rule="nonzero"/></g><g fill="#291b25" fill-opacity="1"><g transform="translate(78.708899, 245.56705)"><g><path d="M 12.875 0 L 8.25 -8.15625 L 6.265625 -8.15625 L 6.265625 0 L 2.0625 0 L 2.0625 -20.9375 L 9.9375 -20.9375 C 11.550781 -20.9375 12.925781 -20.648438 14.0625 -20.078125 C 15.207031 -19.515625 16.0625 -18.742188 16.625 -17.765625 C 17.195312 -16.796875 17.484375 -15.710938 17.484375 -14.515625 C 17.484375 -13.140625 17.082031 -11.894531 16.28125 -10.78125 C 15.488281 -9.675781 14.300781 -8.910156 12.71875 -8.484375 L 17.734375 0 Z M 6.265625 -11.3125 L 9.78125 -11.3125 C 10.914062 -11.3125 11.765625 -11.582031 12.328125 -12.125 C 12.890625 -12.675781 13.171875 -13.445312 13.171875 -14.4375 C 13.171875 -15.394531 12.890625 -16.132812 12.328125 -16.65625 C 11.765625 -17.1875 10.914062 -17.453125 9.78125 -17.453125 L 6.265625 -17.453125 Z M 6.265625 -11.3125 "/></g></g></g><g fill="#291b25" fill-opacity="1"><g transform="translate(100.038879, 245.56705)"><g><path d="M 6.265625 -17.546875 L 6.265625 -12.296875 L 13.3125 -12.296875 L 13.3125 -8.96875 L 6.265625 -8.96875 L 6.265625 -3.421875 L 14.21875 -3.421875 L 14.21875 0 L 2.0625 0 L 2.0625 -20.96875 L 14.21875 -20.96875 L 14.21875 -17.546875 Z M 6.265625 -17.546875 "/></g></g></g><g fill="#291b25" fill-opacity="1"><g transform="translate(118.09887, 245.56705)"><g><path d="M 19.984375 0 L 15.78125 0 L 6.265625 -14.375 L 6.265625 0 L 2.0625 0 L 2.0625 -20.96875 L 6.265625 -20.96875 L 15.78125 -6.5625 L 15.78125 -20.96875 L 19.984375 -20.96875 Z M 19.984375 0 "/></g></g></g><g fill="#291b25" fill-opacity="1"><g transform="translate(142.248861, 245.56705)"><g><path d="M 16.3125 -20.9375 L 16.3125 -17.546875 L 10.734375 -17.546875 L 10.734375 0 L 6.546875 0 L 6.546875 -17.546875 L 0.953125 -17.546875 L 0.953125 -20.9375 Z M 16.3125 -20.9375 "/></g></g></g><g fill="#291b25" fill-opacity="1"><g transform="translate(161.65884, 245.56705)"><g/></g></g><g fill="#291b25" fill-opacity="1"><g transform="translate(170.898833, 245.56705)"><g><path d="M 14.90625 -3.984375 L 6.5625 -3.984375 L 5.1875 0 L 0.78125 0 L 8.3125 -20.96875 L 13.203125 -20.96875 L 20.734375 0 L 16.296875 0 Z M 13.765625 -7.34375 L 10.734375 -16.109375 L 7.703125 -7.34375 Z M 13.765625 -7.34375 "/></g></g></g><g fill="#291b25" fill-opacity="1"><g transform="translate(194.478811, 245.56705)"><g/></g></g><g fill="#f79320" fill-opacity="1"><g transform="translate(203.712797, 245.56705)"><g><path d="M 13.953125 -10.734375 C 15.128906 -10.515625 16.097656 -9.925781 16.859375 -8.96875 C 17.617188 -8.007812 18 -6.910156 18 -5.671875 C 18 -4.546875 17.722656 -3.554688 17.171875 -2.703125 C 16.617188 -1.859375 15.820312 -1.195312 14.78125 -0.71875 C 13.75 -0.238281 12.519531 0 11.09375 0 L 2.0625 0 L 2.0625 -20.9375 L 10.703125 -20.9375 C 12.128906 -20.9375 13.359375 -20.707031 14.390625 -20.25 C 15.421875 -19.789062 16.195312 -19.148438 16.71875 -18.328125 C 17.25 -17.503906 17.515625 -16.578125 17.515625 -15.546875 C 17.515625 -14.316406 17.1875 -13.289062 16.53125 -12.46875 C 15.882812 -11.65625 15.023438 -11.078125 13.953125 -10.734375 Z M 6.265625 -12.296875 L 10.109375 -12.296875 C 11.109375 -12.296875 11.878906 -12.519531 12.421875 -12.96875 C 12.960938 -13.425781 13.234375 -14.070312 13.234375 -14.90625 C 13.234375 -15.75 12.960938 -16.398438 12.421875 -16.859375 C 11.878906 -17.316406 11.109375 -17.546875 10.109375 -17.546875 L 6.265625 -17.546875 Z M 10.5 -3.421875 C 11.519531 -3.421875 12.3125 -3.660156 12.875 -4.140625 C 13.445312 -4.617188 13.734375 -5.300781 13.734375 -6.1875 C 13.734375 -7.082031 13.429688 -7.785156 12.828125 -8.296875 C 12.234375 -8.804688 11.425781 -9.0625 10.40625 -9.0625 L 6.265625 -9.0625 L 6.265625 -3.421875 Z M 10.5 -3.421875 "/></g></g></g><g fill="#f79320" fill-opacity="1"><g transform="translate(225.102779, 245.56705)"><g><path d="M 11.796875 0.203125 C 9.828125 0.203125 8.023438 -0.253906 6.390625 -1.171875 C 4.753906 -2.085938 3.453125 -3.359375 2.484375 -4.984375 C 1.523438 -6.617188 1.046875 -8.46875 1.046875 -10.53125 C 1.046875 -12.570312 1.523438 -14.40625 2.484375 -16.03125 C 3.453125 -17.664062 4.753906 -18.941406 6.390625 -19.859375 C 8.023438 -20.773438 9.828125 -21.234375 11.796875 -21.234375 C 13.773438 -21.234375 15.578125 -20.773438 17.203125 -19.859375 C 18.835938 -18.941406 20.128906 -17.664062 21.078125 -16.03125 C 22.023438 -14.40625 22.5 -12.570312 22.5 -10.53125 C 22.5 -8.46875 22.023438 -6.617188 21.078125 -4.984375 C 20.128906 -3.359375 18.832031 -2.085938 17.1875 -1.171875 C 15.550781 -0.253906 13.753906 0.203125 11.796875 0.203125 Z M 11.796875 -3.546875 C 13.054688 -3.546875 14.164062 -3.828125 15.125 -4.390625 C 16.082031 -4.960938 16.832031 -5.78125 17.375 -6.84375 C 17.914062 -7.90625 18.1875 -9.132812 18.1875 -10.53125 C 18.1875 -11.925781 17.914062 -13.148438 17.375 -14.203125 C 16.832031 -15.253906 16.082031 -16.054688 15.125 -16.609375 C 14.164062 -17.171875 13.054688 -17.453125 11.796875 -17.453125 C 10.535156 -17.453125 9.414062 -17.171875 8.4375 -16.609375 C 7.46875 -16.054688 6.710938 -15.253906 6.171875 -14.203125 C 5.640625 -13.148438 5.375 -11.925781 5.375 -10.53125 C 5.375 -9.132812 5.640625 -7.90625 6.171875 -6.84375 C 6.710938 -5.78125 7.46875 -4.960938 8.4375 -4.390625 C 9.414062 -3.828125 10.535156 -3.546875 11.796875 -3.546875 Z M 11.796875 -3.546875 "/></g></g></g><g fill="#f79320" fill-opacity="1"><g transform="translate(250.752755, 245.56705)"><g><path d="M 11.796875 0.203125 C 9.828125 0.203125 8.023438 -0.253906 6.390625 -1.171875 C 4.753906 -2.085938 3.453125 -3.359375 2.484375 -4.984375 C 1.523438 -6.617188 1.046875 -8.46875 1.046875 -10.53125 C 1.046875 -12.570312 1.523438 -14.40625 2.484375 -16.03125 C 3.453125 -17.664062 4.753906 -18.941406 6.390625 -19.859375 C 8.023438 -20.773438 9.828125 -21.234375 11.796875 -21.234375 C 13.773438 -21.234375 15.578125 -20.773438 17.203125 -19.859375 C 18.835938 -18.941406 20.128906 -17.664062 21.078125 -16.03125 C 22.023438 -14.40625 22.5 -12.570312 22.5 -10.53125 C 22.5 -8.46875 22.023438 -6.617188 21.078125 -4.984375 C 20.128906 -3.359375 18.832031 -2.085938 17.1875 -1.171875 C 15.550781 -0.253906 13.753906 0.203125 11.796875 0.203125 Z M 11.796875 -3.546875 C 13.054688 -3.546875 14.164062 -3.828125 15.125 -4.390625 C 16.082031 -4.960938 16.832031 -5.78125 17.375 -6.84375 C 17.914062 -7.90625 18.1875 -9.132812 18.1875 -10.53125 C 18.1875 -11.925781 17.914062 -13.148438 17.375 -14.203125 C 16.832031 -15.253906 16.082031 -16.054688 15.125 -16.609375 C 14.164062 -17.171875 13.054688 -17.453125 11.796875 -17.453125 C 10.535156 -17.453125 9.414062 -17.171875 8.4375 -16.609375 C 7.46875 -16.054688 6.710938 -15.253906 6.171875 -14.203125 C 5.640625 -13.148438 5.375 -11.925781 5.375 -10.53125 C 5.375 -9.132812 5.640625 -7.90625 6.171875 -6.84375 C 6.710938 -5.78125 7.46875 -4.960938 8.4375 -4.390625 C 9.414062 -3.828125 10.535156 -3.546875 11.796875 -3.546875 Z M 11.796875 -3.546875 "/></g></g></g><g fill="#f79320" fill-opacity="1"><g transform="translate(276.402733, 245.56705)"><g><path d="M 13.890625 0 L 6.265625 -9.328125 L 6.265625 0 L 2.0625 0 L 2.0625 -20.9375 L 6.265625 -20.9375 L 6.265625 -11.546875 L 13.890625 -20.9375 L 18.953125 -20.9375 L 10.3125 -10.5625 L 19.203125 0 Z M 13.890625 0 "/></g></g></g></svg>