<svg version="1.2" xmlns="http://www.w3.org/2000/svg" viewBox="0 0 500 500" width="500" height="500">
	<title>logo-svg</title>
	<defs>
		<clipPath clipPathUnits="userSpaceOnUse" id="cp1">
			<path d="m124.44 104.3h226.67v149.03h-226.67z"/>
		</clipPath>
		<clipPath clipPathUnits="userSpaceOnUse" id="cp2">
			<path d="m77.47 200h321.53v107.63h-321.53z"/>
		</clipPath>
	</defs>
	<style>
		.s0 { fill: #29375c } 
		.s1 { fill: #f79320 } 
		.s2 { fill: #291b25 } 
	</style>
	<g id="Clip-Path" clip-path="url(#cp1)">
		<g id="Layer">
			<path id="Layer" fill-rule="evenodd" class="s0" d="m238.2 159.6c0.3-30.5 25.3-55.3 56.1-55.3 30.8 0 56 25.1 56 55.9 0 30.8-25.2 55.9-56.1 55.9-6 0-11.8-0.9-17.3-2.7l-38.7 39.3-38.8-39.3c-5.5 1.8-11.3 2.7-17.3 2.7-30.9 0-56.1-25.1-56.1-55.9 0-30.8 25.2-55.9 56.1-55.9 30.7 0 55.7 24.8 56.1 55.3zm-13.5 0.6c0-23.5-19-42.5-42.6-42.5-23.6 0-42.7 19-42.7 42.5 0 23.5 19.1 42.6 42.7 42.6 23.6 0 42.6-19.1 42.6-42.6zm112.2 0c0-23.5-19.1-42.5-42.6-42.5-23.6 0-42.7 19-42.7 42.5 0 23.5 19.1 42.6 42.7 42.6 23.5 0 42.6-19.1 42.6-42.6z"/>
		</g>
	</g>
	<path id="Layer" class="s0" d="m212.2 161.3c0 17.2-14.2 31.3-31.5 31.3-17.2 0-31.4-14.1-31.4-31.3q0-1 0-1.9c4.1 2.8 8.9 4.2 13.7 4.2 13.3 0 24.3-10.9 24.3-24.1 0-3.2-0.7-6.3-1.9-9.2 15.3 2.3 26.8 15.5 26.8 31z"/>
	<path id="Layer" class="s0" d="m327.1 161.3c0 17.2-14.2 31.3-31.5 31.3-17.2 0-31.4-14.1-31.4-31.3q0-1 0-1.9c4.1 2.8 8.8 4.2 13.7 4.2 13.3 0 24.3-10.9 24.3-24.1 0-3.2-0.7-6.3-1.9-9.2 15.3 2.3 26.8 15.5 26.8 31z"/>
	<g id="Clip-Path" clip-path="url(#cp2)">
		<g id="Layer">
			<path id="Layer" class="s1" d="m238.2 289.1c47.6-66.3 120-87.9 120-87.9l7.2 11.8c-34.3 13.9-57 27.4-57 27.4 22.4-9.4 42.7-16.5 60.4-21.8l5.8 9.6c-43.6 13.4-74.2 29.5-74.2 29.5 30.6-11 57.3-18.1 78.5-22.6l4.7 7.8c-63.5 11.9-114 37.3-114 37.3 57.2-19.3 100.7-25.2 120.3-27.1l9.1 14.9c0 0-75.9 1.3-139.1 24.7-3.9 14.9-21.7 14.7-21.7 14.7 0 0-17.9 0.2-21.8-14.7-63.2-23.4-139.1-24.7-139.1-24.7l9.1-14.8c19.6 1.8 63.2 7.7 120.4 27 0 0-50.6-25.3-114.1-37.3l4.7-7.8c21.3 4.6 48 11.6 78.6 22.6 0 0-30.7-16.1-74.3-29.5l5.9-9.6c17.6 5.3 37.9 12.4 60.3 21.8 0 0-22.7-13.5-56.9-27.4l7.2-11.8c0 0 72.3 21.6 120 87.9z"/>
		</g>
	</g>
	<g id="Layer">
		<g id="Layer">
			<g id="Layer">
				<path id="Layer" fill-rule="evenodd" class="s2" d="m36.9 379l-10.3-18.1h-4.4v18.1h-9.4v-46.5h17.5q5.4 0 9.2 1.9 3.8 1.9 5.7 5.2 1.9 3.2 1.9 7.2 0 4.6-2.7 8.3-2.6 3.7-7.9 5.1l11.2 18.8zm-14.7-25.1h7.8q3.8 0 5.6-1.8 1.9-1.8 1.9-5.1 0-3.2-1.9-5-1.8-1.7-5.6-1.7h-7.8z"/>
			</g>
		</g>
	</g>
	<g id="Layer">
		<g id="Layer">
			<g id="Layer">
				<path id="Layer" class="s2" d="m69.6 340v11.7h15.6v7.4h-15.6v12.3h17.6v7.6h-27v-46.6h27v7.6z"/>
			</g>
		</g>
	</g>
	<g id="Layer">
		<g id="Layer">
			<g id="Layer">
				<path id="Layer" class="s2" d="m140.2 379h-9.4l-21.1-31.9v31.9h-9.3v-46.6h9.3l21.1 32.1v-32.1h9.4z"/>
			</g>
		</g>
	</g>
	<g id="Layer">
		<g id="Layer">
			<g id="Layer">
				<path id="Layer" class="s2" d="m185.7 332.5v7.5h-12.4v39h-9.3v-39h-12.4v-7.5z"/>
			</g>
		</g>
	</g>
	<g id="Layer">
		<g id="Layer">
			<g id="Layer">
			</g>
		</g>
	</g>
	<g id="Layer">
		<g id="Layer">
			<g id="Layer">
				<path id="Layer" fill-rule="evenodd" class="s2" d="m246.2 370.2h-18.5l-3.1 8.8h-9.8l16.8-46.6h10.8l16.8 46.6h-9.9zm-2.5-7.4l-6.7-19.5-6.8 19.5z"/>
			</g>
		</g>
	</g>
	<g id="Layer">
		<g id="Layer">
			<g id="Layer">
			</g>
		</g>
	</g>
	<g id="Layer">
		<g id="Layer">
			<g id="Layer">
				<path id="Layer" fill-rule="evenodd" class="s1" d="m317 355.2q4 0.7 6.5 3.9 2.5 3.2 2.5 7.3 0 3.8-1.8 6.6-1.9 2.8-5.3 4.4-3.5 1.6-8.2 1.6h-20.1v-46.5h19.2q4.8 0 8.2 1.5 3.4 1.6 5.2 4.3 1.8 2.8 1.8 6.2 0 4.1-2.2 6.8-2.2 2.7-5.8 3.9zm-17-3.5h8.5q3.3 0 5.1-1.5 1.8-1.5 1.8-4.3 0-2.8-1.8-4.3-1.8-1.6-5.1-1.6h-8.5zm9.4 19.8q3.4 0 5.2-1.6 1.9-1.6 1.9-4.6 0-3-2-4.7-1.9-1.7-5.3-1.7h-9.2v12.6z"/>
			</g>
		</g>
	</g>
	<g id="Layer">
		<g id="Layer">
			<g id="Layer">
				<path id="Layer" fill-rule="evenodd" class="s1" d="m359.8 379.5q-6.6 0-12-3.1-5.5-3-8.7-8.4-3.2-5.5-3.2-12.4 0-6.8 3.2-12.2 3.2-5.4 8.7-8.5 5.4-3 12-3 6.6 0 12 3 5.4 3.1 8.6 8.5 3.2 5.4 3.2 12.2 0 6.9-3.2 12.4-3.2 5.4-8.6 8.4-5.5 3.1-12 3.1zm0-8.3q4.2 0 7.4-1.9 3.2-1.9 5-5.5 1.8-3.5 1.8-8.2 0-4.6-1.8-8.1-1.8-3.5-5-5.4-3.2-1.8-7.4-1.8-4.2 0-7.5 1.8-3.2 1.9-5 5.4-1.8 3.5-1.8 8.1 0 4.7 1.8 8.2 1.8 3.6 5 5.5 3.3 1.9 7.5 1.9z"/>
			</g>
		</g>
	</g>
	<g id="Layer">
		<g id="Layer">
			<g id="Layer">
				<path id="Layer" fill-rule="evenodd" class="s1" d="m416.8 379.5q-6.6 0-12-3.1-5.5-3-8.7-8.4-3.2-5.5-3.2-12.4 0-6.8 3.2-12.2 3.2-5.4 8.7-8.5 5.4-3 12-3 6.6 0 12 3 5.4 3.1 8.6 8.5 3.2 5.4 3.2 12.2 0 6.9-3.2 12.4-3.2 5.4-8.6 8.4-5.5 3.1-12 3.1zm0-8.3q4.2 0 7.4-1.9 3.2-1.9 5-5.5 1.8-3.5 1.8-8.2 0-4.6-1.8-8.1-1.8-3.5-5-5.4-3.2-1.8-7.4-1.8-4.2 0-7.5 1.8-3.2 1.9-5 5.4-1.8 3.5-1.8 8.1 0 4.7 1.8 8.2 1.8 3.6 5 5.5 3.3 1.9 7.5 1.9z"/>
			</g>
		</g>
	</g>
	<g id="Layer">
		<g id="Layer">
			<g id="Layer">
				<path id="Layer" class="s1" d="m478.4 379l-16.9-20.7v20.7h-9.4v-46.5h9.4v20.9l16.9-20.9h11.3l-19.2 23.1 19.7 23.4z"/>
			</g>
		</g>
	</g>
</svg>